PathFileType	4	(X/Y/Z)	/Users/itak/Documents/Research/Walk-IL/dataset/trc/00508_00183.trc
DataRate	CameraRate	NumFrames	NumMarkers	Units	OrigDataRate	OrigDataStartFrame	OrigNumFrames
100.000000	100.000000	4	54	mm	100.000000	230	461
Frame#	Time	RPSI			LPSI			L3			STRN			T10			C7			CLAV			RBAK			LBAK			LSHO			LUPA			LAEL			LAOL			LWTS			LWPS			LFRA			LIFD			LHPS			LHTS			RSHO			RUPA			RAEL			RAOL			RWTS			RWPS			RFRA			RIFD			RHTS			RHPS			RBHD			LFHD			RFHD			LBHD			LHIP			RHIP			RASI			LASI			LKNE			LTHI			LANK			LTIP			LTOE			LMT1			LMT5			LHEE			RKNE			RTHI			RANK			RTIP			RTOE			RMT1			RMT5			RHEE			*53			
		X1	Y1	Z1	X2	Y2	Z2	X3	Y3	Z3	X4	Y4	Z4	X5	Y5	Z5	X6	Y6	Z6	X7	Y7	Z7	X8	Y8	Z8	X9	Y9	Z9	X10	Y10	Z10	X11	Y11	Z11	X12	Y12	Z12	X13	Y13	Z13	X14	Y14	Z14	X15	Y15	Z15	X16	Y16	Z16	X17	Y17	Z17	X18	Y18	Z18	X19	Y19	Z19	X20	Y20	Z20	X21	Y21	Z21	X22	Y22	Z22	X23	Y23	Z23	X24	Y24	Z24	X25	Y25	Z25	X26	Y26	Z26	X27	Y27	Z27	X28	Y28	Z28	X29	Y29	Z29	X30	Y30	Z30	X31	Y31	Z31	X32	Y32	Z32	X33	Y33	Z33	X34	Y34	Z34	X35	Y35	Z35	X36	Y36	Z36	X37	Y37	Z37	X38	Y38	Z38	X39	Y39	Z39	X40	Y40	Z40	X41	Y41	Z41	X42	Y42	Z42	X43	Y43	Z43	X44	Y44	Z44	X45	Y45	Z45	X46	Y46	Z46	X47	Y47	Z47	X48	Y48	Z48	X49	Y49	Z49	X50	Y50	Z50	X51	Y51	Z51	X52	Y52	Z52	X53	Y53	Z53	X54	Y54	Z54	

231	2.3	-364.3936462402344	970.8348999023438	-3.397350549697876	-317.3675231933594	971.232421875	-119.6397476196289	-329.2410583496094	1041.068969726562	-38.7294921875	-102.9484634399414	1165.82080078125	34.81449508666992	-331.8956298828125	1143.601806640625	-12.83276844024658	-261.9979858398438	1361.244140625	31.26104545593262	-123.9465484619141	1265.129150390625	41.40988159179688	-338.6772766113281	1236.832641601562	91.90196228027344	-279.6569519042969	1326.64453125	-60.90631866455078	-168.9771423339844	1360.24951171875	-114.2609252929688	-225.4459686279297	1275.153076171875	-195.6287231445312	-313.0387573242188	1119.744506835938	-276.8538513183594	-376.8177185058594	1099.041748046875	-200.7476501464844	-191.3157501220703	951.0185546875	-305.8064575195312	-273.0395202636719	911.0211791992188	-331.5812683105469	-289.8940734863281	1052.361083984375	-301.962890625	-172.3063049316406	811.324462890625	-381.3352661132812	-246.4100646972656	877.0327758789062	-363.05517578125	-181.4024963378906	892.9180908203125	-359.7197265625	-235.0440521240234	1332.172485351562	182.7398223876953	-263.8973388671875	1260.766967773438	230.122802734375	-249.9179229736328	1003.743835449219	264.5943603515625	-282.06494140625	964.7695922851562	221.3416748046875	-37.88113784790039	981.7945556640625	252.7812042236328	-61.09471130371094	896.8204956054688	275.9773864746094	-213.5638732910156	969.3457641601562	269.5048828125	102.6162719726562	909.944091796875	270.8387756347656	42.92900848388672	945.6165771484375	290.2176818847656	13.16273784637451	881.2139282226562	287.6943664550781	-263.0205383300781	1491.818481445312	108.1317749023438	-96.87531280517578	1575.801391601562	34.16306686401367	-153.4243927001953	1565.19189453125	147.8394927978516	-204.7913055419922	1498.87353515625	-40.26565170288086	-162.0850830078125	901.2514038085938	-192.0721740722656	-343.5593872070312	847.80419921875	137.4017181396484	-217.2390899658203	872.8673095703125	133.2100067138672	-124.1908721923828	919.1297607421875	-81.92959594726562	-22.63264274597168	533.7228393554688	-18.22740364074707	-64.84362030029297	672.1658325195312	-92.52507019042969	-143.1815643310547	107.6106491088867	-87.87353515625	-42.22186660766602	387.5310668945312	-35.49741363525391	-21.55245208740234	75.93077850341797	67.24245452880859	-98.89962768554688	86.24739837646484	55.2384147644043	-51.34360885620117	81.24838256835938	-37.93903732299805	-215.3563690185547	114.6370086669922	-63.23185348510742	-428.9811706542969	490.2258911132812	21.10975646972656	-346.5038757324219	716.3411254882812	125.0247650146484	-701.4595947265625	177.3829650878906	-158.862060546875	-492.0369567871094	363.0196228027344	-29.1640453338623	-594.0443115234375	34.18397903442383	-161.5705108642578	-595.7754516601562	73.80133819580078	-206.4724578857422	-662.75634765625	71.48162841796875	-138.4807434082031	-704.3612670898438	227.0965728759766	-209.2038421630859	nan	nan	nan	
232	2.31	-345.4713745117188	974.2500610351562	8.155301094055176	-298.8764953613281	975.0965576171875	-108.214599609375	-311.0798645019531	1043.731811523438	-27.15842056274414	-85.80953216552734	1169.307495117188	44.90505981445312	-315.1693420410156	1145.927978515625	-1.224161744117737	-246.265869140625	1363.59912109375	42.09856414794922	-107.4259948730469	1268.5849609375	51.41643905639648	-321.6947021484375	1238.995727539062	103.4633102416992	-264.6079711914062	1329.53857421875	-49.85783386230469	-154.2743225097656	1362.953979492188	-103.9045867919922	-210.5983734130859	1277.503540039062	-184.8741912841797	-297.0927734375	1120.551147460938	-264.4755249023438	-360.3792114257812	1099.735473632812	-187.9620208740234	-172.8278045654297	952.7474975585938	-292.1539306640625	-253.8022766113281	910.8596801757812	-317.2306213378906	-273.1194152832031	1053.135375976562	-288.9837036132812	-151.4717102050781	811.5747680664062	-364.5918579101562	-226.4835357666016	876.3310546875	-347.659912109375	-161.8280334472656	893.3829345703125	-344.5778198242188	-218.1599578857422	1334.699829101562	193.3680725097656	-246.5347137451172	1263.064208984375	240.7339019775391	-233.2848052978516	1005.4921875	272.2390747070312	-265.7102966308594	967.1920166015625	228.6325531005859	-21.30081367492676	981.9802856445312	259.9423828125	-44.95946502685547	896.6358642578125	281.4633483886719	-197.1817474365234	970.7914428710938	276.7301330566406	118.8230514526367	909.0093994140625	276.3340454101562	59.30471420288086	944.6904296875	296.4017944335938	29.34049606323242	880.424560546875	292.4850158691406	-247.3588562011719	1494.7822265625	118.260871887207	-81.00920867919922	1578.431640625	44.34408569335938	-137.5280303955078	1567.776611328125	158.0402221679688	-189.2066192626953	1501.933227539062	-30.1707649230957	-144.1604919433594	904.78564453125	-181.3955230712891	-323.9703979492188	850.8305053710938	148.7177124023438	-197.9232025146484	875.4640502929688	143.709716796875	-106.4060592651367	922.3120727539062	-71.30721282958984	-11.90176582336426	531.0226440429688	-11.60434532165527	-50.38351058959961	671.7109985351562	-84.7342529296875	-122.0747299194336	97.39122009277344	-65.72697448730469	-28.78327751159668	382.2157592773438	-25.20539283752441	1.959099411964417	74.6241455078125	89.60335540771484	-75.75032043457031	82.43224334716797	77.81222534179688	-29.05664253234863	75.39048004150391	-15.52649116516113	-194.2986297607422	103.581672668457	-40.75872421264648	-411.0908813476562	493.0364990234375	34.04084777832031	-327.3751220703125	719.3670654296875	136.7934112548828	-691.4255981445312	185.3885650634766	-142.5169982910156	-476.6079406738281	366.89111328125	-15.68072605133057	-587.9322509765625	33.40205383300781	-154.1741485595703	-590.4187622070312	80.00898742675781	-196.7586059570312	-655.5264892578125	77.34341430664062	-126.8061752319336	-694.3063354492188	236.4259948730469	-191.2412567138672	nan	nan	nan	
233	2.32	-326.7622375488281	976.8496704101562	19.47160339355469	-280.4102478027344	977.89501953125	-96.94805908203125	-292.9695434570312	1045.493530273438	-15.87324810028076	-68.67962646484375	1171.680419921875	55.15152740478516	-298.5355834960938	1147.370239257812	9.988237380981445	-230.4082336425781	1365.017211914062	52.71353912353516	-90.85969543457031	1270.922607421875	61.53733444213867	-304.8656311035156	1240.32275390625	114.6232376098633	-249.2039184570312	1331.420043945312	-39.14083480834961	-139.0687866210938	1364.604370117188	-93.64487457275391	-194.9432373046875	1278.53125	-174.2637481689453	-279.6446533203125	1119.669189453125	-252.3293304443359	-342.9531860351562	1098.98583984375	-175.7777099609375	-152.5305938720703	953.1895141601562	-277.6170349121094	-232.4275207519531	909.2518920898438	-302.4404907226562	-254.6780090332031	1052.337158203125	-275.94775390625	-128.0315704345703	810.314208984375	-345.7819213867188	-204.1590118408203	874.0419921875	-331.3750915527344	-139.9133758544922	892.4114990234375	-328.1688232421875	-201.5108032226562	1336.248168945312	203.8612213134766	-229.6403961181641	1264.413330078125	251.1214904785156	-217.5842132568359	1006.165954589844	279.9693908691406	-250.3375701904297	968.7420654296875	235.9121246337891	-5.728137493133545	980.0120239257812	267.3279113769531	-30.42156410217285	894.6036376953125	287.5153503417969	-181.8783874511719	970.9771728515625	284.0870666503906	133.4299774169922	904.758056640625	282.0361022949219	74.50975036621094	941.0574340820312	302.6956787109375	43.7569694519043	877.2521362304688	297.7828063964844	-231.6690521240234	1496.691040039062	128.3795318603516	-65.19615173339844	1580.114379882812	54.53161239624023	-121.6693115234375	1569.409301757812	168.2359466552734	-173.5889739990234	1503.961547851562	-20.07627868652344	-126.3226165771484	906.8031616210938	-170.5963897705078	-304.8720397949219	853.1790161132812	160.0281982421875	-179.0528106689453	877.4312133789062	154.3459320068359	-88.68348693847656	924.198974609375	-60.56990432739258	-1.430797100067139	526.9214477539062	-5.408078193664551	-36.10205841064453	669.7570190429688	-77.17778778076172	-104.3464431762695	88.07990264892578	-45.99443435668945	-16.6092700958252	376.1455688476562	-15.91042995452881	21.78337097167969	71.99820709228516	108.8811798095703	-56.13015365600586	78.20877075195312	97.55303192138672	-10.44082450866699	69.29204559326172	4.00333833694458	-176.4618682861328	93.98213958740234	-20.51076316833496	-391.5462036132812	494.1699829101562	47.66285705566406	-308.3996887207031	721.6074829101562	148.5491485595703	-680.361328125	193.3713989257812	-125.9476089477539	-459.5040588378906	369.1549072265625	-1.443179607391357	-580.8218383789062	33.44597625732422	-144.1967163085938	-583.814453125	86.20766448974609	-184.9752502441406	-647.2643432617188	83.86759948730469	-113.2977676391602	-683.0263671875	245.1406402587891	-173.589111328125	nan	nan	nan	
234	2.33	-308.3131408691406	978.4949340820312	30.50978660583496	-262.0399475097656	979.4746704101562	-85.909912109375	-274.9225463867188	1046.284912109375	-4.936048984527588	-51.5549430847168	1172.900756835938	65.52922058105469	-281.9461669921875	1147.872314453125	20.72669410705566	-214.4149322509766	1365.473754882812	63.03302001953125	-74.26288604736328	1272.09814453125	71.73904418945312	-288.2119445800781	1240.787231445312	125.2950134277344	-233.4114532470703	1332.199096679688	-28.8155345916748	-123.3357315063477	1365.16064453125	-83.52688598632812	-178.4527282714844	1278.1826171875	-163.8530426025391	-260.7206726074219	1117.16552734375	-240.4125671386719	-324.5693054199219	1096.796752929688	-164.2000427246094	-130.4915771484375	952.4431762695312	-262.2464904785156	-208.9809875488281	906.2943725585938	-287.215576171875	-234.6153717041016	1050.036010742188	-262.8732299804688	-102.1194076538086	807.8253784179688	-325.1134948730469	-179.5284576416016	870.3571166992188	-314.2373046875	-115.7672500610352	890.2047729492188	-310.5593872070312	-185.110595703125	1336.807006835938	214.1684875488281	-213.2455902099609	1264.817504882812	261.2447814941406	-202.8428649902344	1005.799072265625	287.7940979003906	-235.9510650634766	969.4216918945312	243.2053833007812	8.770700454711914	975.9697265625	274.9563598632812	-17.49927139282227	890.7977905273438	294.1780395507812	-167.6796417236328	969.9476318359375	291.5919799804688	146.3767852783203	897.4139404296875	288.0029296875	88.46306610107422	934.884033203125	309.1681823730469	56.3914680480957	871.8292236328125	303.6637573242188	-215.95361328125	1497.474365234375	138.4573822021484	-49.44597244262695	1580.842895507812	64.73480987548828	-105.877197265625	1570.045043945312	178.4270172119141	-157.9083404541016	1504.934936523438	-10.00358867645264	-108.5994720458984	907.2523803710938	-159.7438812255859	-286.2496337890625	854.7120361328125	171.2828826904297	-160.6063232421875	878.692138671875	165.0830993652344	-71.02944183349609	924.7783813476562	-49.79266357421875	8.858200073242188	521.6030883789062	0.5335168838500977	-22.00522422790527	666.3974609375	-69.75135803222656	-90.1031494140625	79.7200927734375	-29.01469802856445	-5.62166166305542	369.4623107910156	-7.498645305633545	37.90653228759766	68.08454895019531	124.9753646850586	-40.14093017578125	73.54087066650391	114.230583190918	4.492926597595215	63.08718490600586	20.45022392272949	-162.0279846191406	85.73341369628906	-2.923273801803589	-370.4931640625	493.5584716796875	62.08121490478516	-289.5149841308594	722.9407958984375	160.2574157714844	-668.1774291992188	201.2991790771484	-109.4010772705078	-440.9027709960938	369.8526611328125	13.63267612457275	-572.8674926757812	34.47190475463867	-131.2244262695312	-575.8135375976562	91.99787902832031	-170.9055328369141	-638.0445556640625	90.89822387695312	-97.99401092529297	-670.2005004882812	253.1843719482422	-156.555419921875	nan	nan	nan	
